<svg xmlns="http://www.w3.org/2000/svg" xmlns:xlink="http://www.w3.org/1999/xlink" width="194" height="32" viewBox="0 0 194 32">
  <defs>
    <clipPath id="clip-logo-tienda-luckhouse">
      <rect width="194" height="32"/>
    </clipPath>
  </defs>
  <g id="logo-tienda-luckhouse" clip-path="url(#clip-logo-tienda-luckhouse)">
    <g id="Grupo_2155" data-name="Grupo 2155" transform="translate(-8387.031 -6448)">
      <path id="Trazado_1483" data-name="Trazado 1483" d="M34.857.223a1.653,1.653,0,0,1-.5,1.214,1.653,1.653,0,0,1-1.214.5H24.857a.827.827,0,0,1-.607-.25A.827.827,0,0,1,24,1.08v-8a.827.827,0,0,0-.25-.607.827.827,0,0,0-.607-.25H18a.827.827,0,0,0-.607.25.827.827,0,0,0-.25.607v8a.827.827,0,0,1-.25.607.827.827,0,0,1-.607.25H8a1.653,1.653,0,0,1-1.214-.5,1.653,1.653,0,0,1-.5-1.214V-9.991a.969.969,0,0,1,.286-.714L20-21.705a.95.95,0,0,1,.571-.214.95.95,0,0,1,.571.214l13.429,11a.969.969,0,0,1,.286.714Zm6-14.571a.906.906,0,0,1,.25.571.889.889,0,0,1-.179.643L39.143-10.92a.679.679,0,0,1-.571.286,1.045,1.045,0,0,1-.643-.214L21.143-24.634a.95.95,0,0,0-.571-.214.95.95,0,0,0-.571.214L3.215-10.848a1.045,1.045,0,0,1-.643.214A.679.679,0,0,1,2-10.92L.215-13.134a.889.889,0,0,1-.179-.643.906.906,0,0,1,.25-.571L18.429-29.277a3.22,3.22,0,0,1,2.143-.786,3.5,3.5,0,0,1,2.214.786l6.357,5.286c6.656,5.595-.006,0,5.714,4.714Z" transform="translate(8387 6478.063)" fill="#3793f6"/>
      <path id="Trazado_1484" data-name="Trazado 1484" d="M2.263,20.256c0,2.451,1.042,3.493,3.493,3.493H13.2c1.1,0,1.379-.276,1.379-1.379v-.276c0-1.1-.276-1.379-1.379-1.379H6.675A1.047,1.047,0,0,1,5.48,19.551V5.242c0-1.134-.276-1.409-1.409-1.409h-.4c-1.134,0-1.409.276-1.409,1.409ZM20.035,9.93c0-1.1-.276-1.379-1.379-1.379h-.4c-1.1,0-1.379.276-1.379,1.379v8.181c0,3.983,2.237,5.975,6.68,5.975,4.565,0,6.649-1.961,6.649-5.975V9.93c0-1.1-.276-1.379-1.379-1.379h-.4c-1.1,0-1.379.276-1.379,1.379v8.181c0,2.176-.827,3-3.493,3s-3.524-.827-3.524-3Zm13.084,7.722c0,4.29,2.39,6.435,7.2,6.435a9.832,9.832,0,0,0,2.482-.306c1.011-.245,1.287-.552,1.287-1.532V21.88c0-1.011-.276-1.256-1.256-1.042a13.581,13.581,0,0,1-2.359.276c-3.064,0-4.2-.889-4.2-3.554v-2.88c0-2.574,1.042-3.524,3.983-3.524a6.753,6.753,0,0,1,2.267.306c.981.276,1.287.061,1.287-1.011v-.4c0-1.011-.214-1.287-1.226-1.532a9.136,9.136,0,0,0-2.39-.306c-4.627,0-7.078,2.359-7.078,6.435ZM46.662,22.37c0,1.1.276,1.379,1.379,1.379h.368c1.1,0,1.379-.276,1.379-1.379V3.679c0-1.1-.276-1.379-1.379-1.379h-.368c-1.1,0-1.379.276-1.379,1.379Zm5.393-9.345a3.366,3.366,0,0,0-1.226,2.6,4.268,4.268,0,0,0,1.226,2.819l3.432,4.014a3.112,3.112,0,0,0,2.85,1.287h.521c1.379,0,1.471-.214.582-1.287l-4.9-5.669a1.637,1.637,0,0,1-.582-1.072,1.693,1.693,0,0,1,.613-1.1l4.259-4.78c.889-1.072.8-1.287-.582-1.287h-.521a3.112,3.112,0,0,0-2.85,1.287Zm22.4,9.315c0,1.134.276,1.409,1.409,1.409h.4c1.134,0,1.409-.276,1.409-1.409V5.242c0-1.134-.276-1.409-1.409-1.409h-.4c-1.134,0-1.409.276-1.409,1.409v6.5H66.119v-6.5c0-1.134-.276-1.409-1.409-1.409h-.4c-1.134,0-1.409.276-1.409,1.409v17.1c0,1.134.276,1.409,1.409,1.409h.4c1.134,0,1.409-.276,1.409-1.409V14.771h8.334Zm17.68-4.872c0,2.666-.919,3.646-3.83,3.646-2.942,0-3.891-1.042-3.891-3.646V14.832c0-2.666.981-3.677,3.891-3.677s3.83,1.011,3.83,3.677ZM88.3,24.086c4.657,0,6.986-2.329,6.986-6.618V14.832c0-4.443-2.175-6.618-6.986-6.618-4.688,0-7.047,2.206-7.047,6.618v2.635C81.255,21.91,83.431,24.086,88.3,24.086ZM101.356,9.93c0-1.1-.276-1.379-1.379-1.379h-.4c-1.1,0-1.379.276-1.379,1.379v8.181c0,3.983,2.237,5.975,6.68,5.975,4.565,0,6.649-1.961,6.649-5.975V9.93c0-1.1-.276-1.379-1.379-1.379h-.4c-1.1,0-1.379.276-1.379,1.379v8.181c0,2.176-.827,3-3.493,3s-3.524-.827-3.524-3Zm12.961,12.134c0,.981.214,1.226,1.226,1.5a16.939,16.939,0,0,0,4.2.521c4.29,0,6.189-1.348,6.189-4.29,0-2.206-.95-3.34-3.279-4.32L119.1,13.944c-1.1-.49-1.44-.827-1.44-1.563,0-.889.735-1.256,2.7-1.256a12.641,12.641,0,0,1,3.646.49c.98.276,1.256.031,1.256-1.042v-.368c0-.981-.184-1.195-1.287-1.532a13.287,13.287,0,0,0-3.554-.46c-4.045,0-5.852,1.318-5.852,4.167,0,2.176.858,3.217,3.033,4.167l3.309,1.471c1.563.7,1.961,1.072,1.961,1.838,0,.981-.766,1.318-2.85,1.318a17.079,17.079,0,0,1-4.474-.582c-.981-.245-1.226,0-1.226,1.072Zm27.607-7.507c0-4.167-2.237-6.343-6.5-6.343-4.535,0-6.8,2.206-6.8,6.649v2.666c0,4.565,2.359,6.557,7.538,6.557a14.623,14.623,0,0,0,3.983-.49c1.072-.276,1.256-.49,1.256-1.5v-.4c0-1.072-.276-1.318-1.256-1.072a16.658,16.658,0,0,1-3.983.49c-3.095,0-4.382-.889-4.382-3.125v-.674H140.3c1.134,0,1.44-.276,1.563-1.409C141.894,15.292,141.924,14.832,141.924,14.556Zm-10.142-.582c0-2.022,1.195-3.033,3.554-3.033,2.421,0,3.616,1.011,3.616,3.033v.766h-7.17Z" transform="translate(8439.36 6450.643)" fill="#364e65"/>
    </g>
  </g>
</svg>
